<svg width="136" height="18" viewBox="0 0 136 18" fill="none" xmlns="http://www.w3.org/2000/svg">
<path fill-rule="evenodd" clip-rule="evenodd" d="M19 1C20.6569 1 22 2.34315 22 4V14C22 15.6569 20.6569 17 19 17H3C1.34315 17 0 15.6569 0 14V4C0 2.34315 1.34315 1 3 1H19ZM18.2529 3H3.74718L10.3804 8.23673C10.7437 8.52356 11.2563 8.52356 11.6197 8.23673L18.2529 3ZM2 4.1688V14C2 14.5523 2.44772 15 3 15H19C19.5523 15 20 14.5523 20 14V4.16882L12.8589 9.8065C11.769 10.667 10.231 10.667 9.14108 9.8065L2 4.1688Z" fill="#151618"/>
<path d="M35.98 9.1377H38.7222V9.68994H35.98V12.4575H35.4277V9.68994H32.6919V9.1377H35.4277V6.36377H35.98V9.1377ZM45.6538 6.85889C45.6538 7.26937 45.5692 7.63118 45.3999 7.94434C45.2306 8.25749 44.9979 8.51351 44.7017 8.7124C44.4097 8.9113 44.0732 9.04671 43.6924 9.11865V9.15674C44.4202 9.24984 44.9767 9.48893 45.3618 9.87402C45.7469 10.2549 45.9395 10.7754 45.9395 11.4355C45.9395 11.9561 45.8167 12.4194 45.5713 12.8257C45.3258 13.2319 44.9556 13.5514 44.4604 13.7842C43.9696 14.0127 43.3517 14.127 42.6069 14.127C42.1034 14.127 41.6357 14.0804 41.2041 13.9873C40.7725 13.8942 40.3789 13.7651 40.0234 13.6001V12.9717C40.3747 13.1452 40.7788 13.2891 41.2358 13.4033C41.6971 13.5133 42.1562 13.5684 42.6133 13.5684C43.5104 13.5684 44.1769 13.3758 44.6128 12.9907C45.0487 12.6014 45.2666 12.0809 45.2666 11.4292C45.2666 10.9552 45.1502 10.5765 44.9175 10.293C44.6847 10.0052 44.3568 9.79574 43.9336 9.66455C43.5146 9.53337 43.0216 9.46777 42.4546 9.46777H41.439V8.90283H42.4609C42.9391 8.90283 43.3687 8.82878 43.7495 8.68066C44.1304 8.52832 44.4308 8.30404 44.6509 8.00781C44.8752 7.70736 44.9873 7.33496 44.9873 6.89062C44.9873 6.3151 44.8032 5.88135 44.4351 5.58936C44.0711 5.29736 43.5845 5.15137 42.9751 5.15137C42.6493 5.15137 42.3424 5.18522 42.0547 5.25293C41.7712 5.32064 41.4961 5.42008 41.2295 5.55127C40.9671 5.67822 40.7048 5.83268 40.4424 6.01465L40.1123 5.55127C40.4762 5.27197 40.8952 5.04134 41.3691 4.85938C41.8473 4.67741 42.3805 4.58643 42.9688 4.58643C43.8109 4.58643 44.4689 4.78955 44.9429 5.1958C45.4168 5.60205 45.6538 6.15641 45.6538 6.85889ZM49.0054 14L52.8457 5.31641H47.5391V4.71973H53.5439V5.18945L49.71 14H49.0054ZM60.9453 9.33447C60.9453 10.1089 60.8861 10.7944 60.7676 11.3911C60.6491 11.9878 60.4692 12.4893 60.228 12.8955C59.9868 13.3018 59.68 13.6086 59.3076 13.8159C58.9352 14.0233 58.4951 14.127 57.9873 14.127C57.3441 14.127 56.8024 13.9471 56.3623 13.5874C55.9222 13.2277 55.5879 12.6924 55.3594 11.9814C55.1351 11.2705 55.0229 10.3882 55.0229 9.33447C55.0229 8.39502 55.1182 7.56771 55.3086 6.85254C55.5033 6.13737 55.8185 5.57878 56.2544 5.17676C56.6903 4.77474 57.27 4.57373 57.9937 4.57373C58.7131 4.57373 59.2886 4.77051 59.7202 5.16406C60.1561 5.55762 60.4692 6.11198 60.6597 6.82715C60.8501 7.53809 60.9453 8.37386 60.9453 9.33447ZM55.6704 9.33447C55.6704 10.2866 55.7529 11.0758 55.918 11.7021C56.083 12.3242 56.3369 12.7897 56.6797 13.0986C57.0225 13.4076 57.4583 13.562 57.9873 13.562C58.5332 13.562 58.9754 13.4076 59.314 13.0986C59.6525 12.7897 59.9001 12.3221 60.0566 11.6958C60.2174 11.0695 60.2979 10.2824 60.2979 9.33447C60.2979 8.46273 60.228 7.7137 60.0884 7.0874C59.953 6.4611 59.7181 5.98079 59.3838 5.64648C59.0495 5.31217 58.5861 5.14502 57.9937 5.14502C57.4139 5.14502 56.9548 5.31641 56.6162 5.65918C56.2777 6.00195 56.0343 6.48649 55.8862 7.11279C55.7424 7.7391 55.6704 8.47965 55.6704 9.33447ZM65.9028 10.0454C65.9028 9.3514 65.9557 8.71875 66.0615 8.14746C66.1715 7.57194 66.3324 7.06413 66.5439 6.62402C66.7555 6.17969 67.0221 5.80518 67.3438 5.50049C67.6654 5.1958 68.042 4.96517 68.4736 4.80859C68.9053 4.65202 69.3898 4.57373 69.9272 4.57373C70.16 4.57373 70.3822 4.58643 70.5938 4.61182C70.8053 4.63721 70.9915 4.67318 71.1523 4.71973V5.30371C70.9958 5.2487 70.8138 5.20638 70.6064 5.17676C70.3991 5.1429 70.1769 5.12598 69.9399 5.12598C69.2121 5.12598 68.6006 5.29525 68.1055 5.63379C67.6104 5.9681 67.2316 6.46956 66.9692 7.13818C66.7111 7.80257 66.5672 8.62777 66.5376 9.61377H66.582C66.7048 9.38525 66.8761 9.16732 67.0962 8.95996C67.3205 8.7526 67.5977 8.58333 67.9277 8.45215C68.262 8.32096 68.6556 8.25537 69.1084 8.25537C69.667 8.25537 70.1473 8.36751 70.5493 8.5918C70.9556 8.81608 71.2666 9.1377 71.4824 9.55664C71.7025 9.97559 71.8125 10.4728 71.8125 11.0483C71.8125 11.6662 71.6982 12.2057 71.4697 12.667C71.2454 13.1283 70.9196 13.488 70.4922 13.7461C70.069 14 69.5591 14.127 68.9624 14.127C68.4546 14.127 68.0103 14.0233 67.6294 13.8159C67.2485 13.6086 66.929 13.3187 66.6709 12.9463C66.417 12.5739 66.2244 12.1423 66.0933 11.6514C65.9663 11.1562 65.9028 10.6209 65.9028 10.0454ZM68.9561 13.5684C69.6543 13.5684 70.196 13.3504 70.5811 12.9146C70.9704 12.4744 71.165 11.8524 71.165 11.0483C71.165 10.3543 70.9873 9.80632 70.6318 9.4043C70.2764 8.99805 69.7389 8.79492 69.0195 8.79492C68.5202 8.79492 68.0885 8.89437 67.7246 9.09326C67.3649 9.29215 67.0877 9.53971 66.8931 9.83594C66.6984 10.1279 66.6011 10.4157 66.6011 10.6992C66.6011 10.9658 66.6392 11.262 66.7153 11.5879C66.7915 11.9137 66.9206 12.229 67.1025 12.5337C67.2845 12.8341 67.5257 13.0817 67.8262 13.2764C68.1309 13.471 68.5075 13.5684 68.9561 13.5684ZM76.2051 4.58643C76.7298 4.58643 77.189 4.67106 77.5825 4.84033C77.9803 5.0096 78.2892 5.25505 78.5093 5.57666C78.7293 5.89827 78.8394 6.2876 78.8394 6.74463C78.8394 7.12126 78.7526 7.45133 78.5791 7.73486C78.4098 8.01839 78.175 8.26807 77.8745 8.48389C77.5741 8.69548 77.2249 8.8859 76.8271 9.05518C77.2926 9.23291 77.6989 9.43815 78.0459 9.6709C78.3929 9.90365 78.6616 10.1787 78.8521 10.4961C79.0467 10.8135 79.144 11.1901 79.144 11.626C79.144 12.1507 79.015 12.6014 78.7568 12.978C78.4987 13.3504 78.1475 13.6361 77.7031 13.835C77.2588 14.0296 76.751 14.127 76.1797 14.127C75.5872 14.127 75.0731 14.0275 74.6372 13.8286C74.2013 13.6297 73.8628 13.3483 73.6216 12.9844C73.3846 12.6162 73.2661 12.1867 73.2661 11.6958C73.2661 11.2388 73.3613 10.8473 73.5518 10.5215C73.7464 10.1914 74.013 9.90999 74.3516 9.67725C74.6901 9.4445 75.0752 9.24772 75.5068 9.08691C75.1514 8.93034 74.8255 8.75049 74.5293 8.54736C74.2373 8.34424 74.0024 8.0988 73.8247 7.81104C73.6512 7.51904 73.5645 7.16781 73.5645 6.75732C73.5645 6.30452 73.6766 5.91732 73.9009 5.5957C74.1294 5.27409 74.4425 5.02653 74.8403 4.85303C75.2381 4.67529 75.693 4.58643 76.2051 4.58643ZM73.9072 11.6958C73.9072 12.2671 74.1082 12.7241 74.5103 13.0669C74.9123 13.4097 75.4645 13.5811 76.167 13.5811C76.8695 13.5811 77.4344 13.4118 77.8618 13.0732C78.2892 12.7347 78.5029 12.2544 78.5029 11.6323C78.5029 11.2853 78.4204 10.9806 78.2554 10.7183C78.0946 10.4559 77.8576 10.2253 77.5444 10.0264C77.2355 9.82324 76.8589 9.64128 76.4146 9.48047L76.1099 9.36621C75.6782 9.52279 75.2974 9.70475 74.9673 9.91211C74.6372 10.1152 74.377 10.3607 74.1865 10.6484C74.0003 10.9362 73.9072 11.2853 73.9072 11.6958ZM76.1987 5.13867C75.619 5.13867 75.1408 5.28044 74.7642 5.56396C74.3918 5.84749 74.2056 6.25163 74.2056 6.77637C74.2056 7.1276 74.2923 7.42594 74.4658 7.67139C74.6393 7.91683 74.8784 8.12842 75.1831 8.30615C75.492 8.47965 75.8454 8.64046 76.2432 8.78857C76.6579 8.6193 77.0091 8.44157 77.2969 8.25537C77.5889 8.06917 77.811 7.85547 77.9634 7.61426C78.1157 7.37305 78.1919 7.0874 78.1919 6.75732C78.1919 6.22412 78.0142 5.8221 77.6587 5.55127C77.3032 5.2762 76.8166 5.13867 76.1987 5.13867ZM86.6025 9.33447C86.6025 10.1089 86.5433 10.7944 86.4248 11.3911C86.3063 11.9878 86.1265 12.4893 85.8853 12.8955C85.644 13.3018 85.3372 13.6086 84.9648 13.8159C84.5924 14.0233 84.1523 14.127 83.6445 14.127C83.0013 14.127 82.4596 13.9471 82.0195 13.5874C81.5794 13.2277 81.2451 12.6924 81.0166 11.9814C80.7923 11.2705 80.6802 10.3882 80.6802 9.33447C80.6802 8.39502 80.7754 7.56771 80.9658 6.85254C81.1605 6.13737 81.4757 5.57878 81.9116 5.17676C82.3475 4.77474 82.9272 4.57373 83.6509 4.57373C84.3703 4.57373 84.9458 4.77051 85.3774 5.16406C85.8133 5.55762 86.1265 6.11198 86.3169 6.82715C86.5073 7.53809 86.6025 8.37386 86.6025 9.33447ZM81.3276 9.33447C81.3276 10.2866 81.4102 11.0758 81.5752 11.7021C81.7402 12.3242 81.9941 12.7897 82.3369 13.0986C82.6797 13.4076 83.1156 13.562 83.6445 13.562C84.1904 13.562 84.6326 13.4076 84.9712 13.0986C85.3097 12.7897 85.5573 12.3221 85.7139 11.6958C85.8747 11.0695 85.9551 10.2824 85.9551 9.33447C85.9551 8.46273 85.8853 7.7137 85.7456 7.0874C85.6102 6.4611 85.3753 5.98079 85.041 5.64648C84.7067 5.31217 84.2433 5.14502 83.6509 5.14502C83.0711 5.14502 82.612 5.31641 82.2734 5.65918C81.9349 6.00195 81.6916 6.48649 81.5435 7.11279C81.3996 7.7391 81.3276 8.47965 81.3276 9.33447ZM95.0703 14H94.4419V6.99219C94.4419 6.74251 94.4419 6.52458 94.4419 6.33838C94.4419 6.14795 94.444 5.97868 94.4482 5.83057C94.4525 5.67822 94.4588 5.53434 94.4673 5.39893C94.353 5.51318 94.243 5.61263 94.1372 5.69727C94.0314 5.7819 93.896 5.88981 93.731 6.021L92.3599 7.06201L92.0044 6.60498L94.5308 4.71973H95.0703V14ZM104.693 14H98.8853V13.4541L101.615 10.6104C102.051 10.1576 102.417 9.74919 102.713 9.38525C103.013 9.01709 103.24 8.64893 103.392 8.28076C103.549 7.9126 103.627 7.5 103.627 7.04297C103.627 6.44629 103.451 5.98291 103.1 5.65283C102.753 5.32275 102.281 5.15771 101.685 5.15771C101.283 5.15771 100.895 5.22965 100.523 5.37354C100.155 5.51742 99.7951 5.729 99.4438 6.0083L99.0884 5.55762C99.3465 5.34603 99.6174 5.16829 99.9009 5.02441C100.189 4.88053 100.483 4.77262 100.783 4.70068C101.084 4.62451 101.384 4.58643 101.685 4.58643C102.214 4.58643 102.671 4.68799 103.056 4.89111C103.445 5.09001 103.748 5.37142 103.963 5.73535C104.179 6.09928 104.287 6.52669 104.287 7.01758C104.287 7.52539 104.198 7.98665 104.021 8.40137C103.847 8.81185 103.599 9.21387 103.278 9.60742C102.956 10.001 102.575 10.4242 102.135 10.877L99.7168 13.3779V13.4033H104.693V14ZM111.822 6.85889C111.822 7.26937 111.737 7.63118 111.568 7.94434C111.399 8.25749 111.166 8.51351 110.87 8.7124C110.578 8.9113 110.241 9.04671 109.86 9.11865V9.15674C110.588 9.24984 111.145 9.48893 111.53 9.87402C111.915 10.2549 112.107 10.7754 112.107 11.4355C112.107 11.9561 111.985 12.4194 111.739 12.8257C111.494 13.2319 111.124 13.5514 110.628 13.7842C110.138 14.0127 109.52 14.127 108.775 14.127C108.271 14.127 107.804 14.0804 107.372 13.9873C106.94 13.8942 106.547 13.7651 106.191 13.6001V12.9717C106.543 13.1452 106.947 13.2891 107.404 13.4033C107.865 13.5133 108.324 13.5684 108.781 13.5684C109.678 13.5684 110.345 13.3758 110.781 12.9907C111.217 12.6014 111.435 12.0809 111.435 11.4292C111.435 10.9552 111.318 10.5765 111.085 10.293C110.853 10.0052 110.525 9.79574 110.102 9.66455C109.683 9.53337 109.19 9.46777 108.623 9.46777H107.607V8.90283H108.629C109.107 8.90283 109.537 8.82878 109.917 8.68066C110.298 8.52832 110.599 8.30404 110.819 8.00781C111.043 7.70736 111.155 7.33496 111.155 6.89062C111.155 6.3151 110.971 5.88135 110.603 5.58936C110.239 5.29736 109.752 5.15137 109.143 5.15137C108.817 5.15137 108.51 5.18522 108.223 5.25293C107.939 5.32064 107.664 5.42008 107.397 5.55127C107.135 5.67822 106.873 5.83268 106.61 6.01465L106.28 5.55127C106.644 5.27197 107.063 5.04134 107.537 4.85938C108.015 4.67741 108.549 4.58643 109.137 4.58643C109.979 4.58643 110.637 4.78955 111.111 5.1958C111.585 5.60205 111.822 6.15641 111.822 6.85889ZM120.264 11.6323H118.665V14H118.036V11.6323H113.326V11.1245L117.992 4.66895H118.665V11.042H120.264V11.6323ZM118.036 11.042V7.47461C118.036 7.21224 118.036 6.98584 118.036 6.79541C118.04 6.60498 118.045 6.43359 118.049 6.28125C118.053 6.12467 118.057 5.97445 118.062 5.83057C118.066 5.68669 118.07 5.53857 118.074 5.38623H118.036C117.918 5.58936 117.806 5.77767 117.7 5.95117C117.598 6.12044 117.467 6.31299 117.306 6.52881L114.031 11.042H118.036ZM124.016 8.40771C124.642 8.40771 125.181 8.51351 125.634 8.7251C126.091 8.93669 126.443 9.24561 126.688 9.65186C126.938 10.0539 127.062 10.5469 127.062 11.1309C127.062 11.7487 126.925 12.2819 126.65 12.7305C126.375 13.179 125.986 13.5239 125.482 13.7651C124.983 14.0063 124.392 14.127 123.711 14.127C123.22 14.127 122.774 14.0804 122.372 13.9873C121.974 13.89 121.637 13.7609 121.362 13.6001V12.9526C121.659 13.1304 122.012 13.2764 122.422 13.3906C122.837 13.5049 123.269 13.562 123.717 13.562C124.259 13.562 124.731 13.471 125.133 13.2891C125.535 13.1029 125.846 12.832 126.066 12.4766C126.29 12.1211 126.402 11.6852 126.402 11.1689C126.402 10.4792 126.193 9.94173 125.774 9.55664C125.355 9.16732 124.722 8.97266 123.876 8.97266C123.529 8.97266 123.197 8.99805 122.879 9.04883C122.566 9.09538 122.274 9.15462 122.003 9.22656L121.635 8.96631L122.01 4.71973H126.466V5.31641H122.562L122.276 8.62354C122.467 8.57699 122.706 8.53044 122.994 8.48389C123.286 8.43311 123.626 8.40771 124.016 8.40771ZM128.694 10.0454C128.694 9.3514 128.747 8.71875 128.853 8.14746C128.963 7.57194 129.123 7.06413 129.335 6.62402C129.547 6.17969 129.813 5.80518 130.135 5.50049C130.456 5.1958 130.833 4.96517 131.265 4.80859C131.696 4.65202 132.181 4.57373 132.718 4.57373C132.951 4.57373 133.173 4.58643 133.385 4.61182C133.596 4.63721 133.783 4.67318 133.943 4.71973V5.30371C133.787 5.2487 133.605 5.20638 133.397 5.17676C133.19 5.1429 132.968 5.12598 132.731 5.12598C132.003 5.12598 131.392 5.29525 130.896 5.63379C130.401 5.9681 130.023 6.46956 129.76 7.13818C129.502 7.80257 129.358 8.62777 129.329 9.61377H129.373C129.496 9.38525 129.667 9.16732 129.887 8.95996C130.111 8.7526 130.389 8.58333 130.719 8.45215C131.053 8.32096 131.447 8.25537 131.899 8.25537C132.458 8.25537 132.938 8.36751 133.34 8.5918C133.747 8.81608 134.058 9.1377 134.273 9.55664C134.493 9.97559 134.604 10.4728 134.604 11.0483C134.604 11.6662 134.489 12.2057 134.261 12.667C134.036 13.1283 133.711 13.488 133.283 13.7461C132.86 14 132.35 14.127 131.753 14.127C131.246 14.127 130.801 14.0233 130.42 13.8159C130.04 13.6086 129.72 13.3187 129.462 12.9463C129.208 12.5739 129.015 12.1423 128.884 11.6514C128.757 11.1562 128.694 10.6209 128.694 10.0454ZM131.747 13.5684C132.445 13.5684 132.987 13.3504 133.372 12.9146C133.761 12.4744 133.956 11.8524 133.956 11.0483C133.956 10.3543 133.778 9.80632 133.423 9.4043C133.067 8.99805 132.53 8.79492 131.811 8.79492C131.311 8.79492 130.88 8.89437 130.516 9.09326C130.156 9.29215 129.879 9.53971 129.684 9.83594C129.489 10.1279 129.392 10.4157 129.392 10.6992C129.392 10.9658 129.43 11.262 129.506 11.5879C129.583 11.9137 129.712 12.229 129.894 12.5337C130.076 12.8341 130.317 13.0817 130.617 13.2764C130.922 13.471 131.299 13.5684 131.747 13.5684Z" fill="#151618"/>
</svg>
